<?xml version="1.0" ?><svg id="Layer_1" style="enable-background:new 0 0 512 512;" version="1.1" viewBox="0 0 512 512" xml:space="preserve" xmlns="http://www.w3.org/2000/svg" xmlns:xlink="http://www.w3.org/1999/xlink"><style type="text/css">
	.st0{fill:#ABB3DA;}
	.st1{enable-background:new    ;}
	.st2{fill:#9AA4B5;}
	.st3{fill:url(#SVGID_1_);}
	.st4{fill:url(#SVGID_2_);}
	.st5{fill:url(#SVGID_3_);}
	.st6{fill:url(#SVGID_4_);}
	.st7{fill:url(#SVGID_5_);}
	.st8{fill:url(#SVGID_6_);}
	.st9{fill:url(#SVGID_7_);}
	.st10{fill:url(#SVGID_8_);}
	.st11{fill:url(#SVGID_9_);}
	.st12{fill:url(#SVGID_10_);}
	.st13{fill:url(#SVGID_11_);}
	.st14{fill:url(#SVGID_12_);}
	.st15{fill:url(#SVGID_13_);}
	.st16{fill:url(#SVGID_14_);}
	.st17{fill:#EDDDEE;}
	.st18{fill:#71509C;}
	.st19{fill:#020203;}
	.st20{font-family:'OpenSans-Semibold';}
	.st21{font-size:7.8753px;}
	.st22{fill:#585858;}
	.st23{font-family:'OpenSans-Light';}
	.st24{font-size:5.9065px;}
	.st25{fill:url(#SVGID_15_);}
	.st26{fill:url(#SVGID_16_);}
	.st27{fill:url(#SVGID_17_);}
	.st28{fill:#FBDEEB;}
	.st29{fill:#E9488E;}
	.st30{fill:url(#SVGID_18_);}
	.st31{fill:url(#SVGID_19_);}
	.st32{fill:#282E69;}
	.st33{fill:#F7B7B1;}
	.st34{fill:#E49F99;}
	.st35{fill:#80CFF5;}
	.st36{fill:url(#SVGID_20_);}
	.st37{fill:#3F328A;}
	.st38{fill:url(#SVGID_21_);}
	.st39{fill:#EFF8FE;}
	.st40{fill:url(#SVGID_22_);}
	.st41{fill:#FFFFFF;}
	.st42{fill:url(#SVGID_23_);}
	.st43{fill:url(#SVGID_24_);}
	.st44{fill:url(#SVGID_25_);}
</style><g><path class="st0" d="M424.8,425.1l-212-122.4c-2.8-1.6-7.2-1.6-9.9,0l-123.7,74c-2.7,1.6-2.7,4.2,0,5.8l212,122.4   c2.7,1.6,7.2,1.6,9.9,0l123.7-74C427.5,429.3,427.5,426.7,424.8,425.1z"/><g class="st1"><path class="st2" d="M424.8,395.2l-123.7,74c-2.7,1.6-7.2,1.6-9.9,0l-212-122.4c-1.4-0.8-2.1-1.8-2.1-2.9c0,1.9,0,1.7,0,3.6    c0,1,0.7,2.1,2.1,2.9l212,122.4c2.7,1.6,7.2,1.6,9.9,0l123.7-71.9c1.4-0.8,2-1.8,2-2.9c0-1.9,0-3.8,0-5.7    C426.8,393.3,426.2,394.4,424.8,395.2z"/><linearGradient gradientUnits="userSpaceOnUse" id="SVGID_1_" x1="180.9964" x2="381.0384" y1="320.7428" y2="454.1043"><stop offset="0" style="stop-color:#FFFFFF"/><stop offset="0.3409" style="stop-color:#F7F7F7"/><stop offset="0.9251" style="stop-color:#E0E0DF"/><stop offset="1" style="stop-color:#DCDCDC"/></linearGradient><path class="st3" d="M424.8,389.4L212.7,267c-2.8-1.6-7.2-1.6-9.9,0l-123.7,74c-2.7,1.6-2.7,4.2,0,5.8l212,122.4    c2.7,1.6,7.2,1.6,9.9,0l123.7-74C427.5,393.6,427.5,391,424.8,389.4z"/><g><linearGradient gradientUnits="userSpaceOnUse" id="SVGID_2_" x1="147.7646" x2="355.6046" y1="311.917" y2="395.3637"><stop offset="0" style="stop-color:#5A6B88"/><stop offset="0.3348" style="stop-color:#526484"/><stop offset="0.9086" style="stop-color:#3B547C"/><stop offset="1" style="stop-color:#37517B"/></linearGradient><polygon class="st4" points="194.8,278.3 125.5,318.6 335,439.6 404.3,399.3    "/><linearGradient gradientUnits="userSpaceOnUse" id="SVGID_3_" x1="166.6695" x2="248.167" y1="375.4199" y2="409.7357"><stop offset="0" style="stop-color:#5A6B88"/><stop offset="0.3348" style="stop-color:#526484"/><stop offset="0.9086" style="stop-color:#3B547C"/><stop offset="1" style="stop-color:#37517B"/></linearGradient><polygon class="st5" points="150.8,383.8 222.4,425.1 263.6,401.2 192,359.8    "/><linearGradient gradientUnits="userSpaceOnUse" id="SVGID_4_" x1="360.0207" x2="293.3401" y1="181.5035" y2="323.4442"><stop offset="0" style="stop-color:#FFFFFF"/><stop offset="0.2331" style="stop-color:#F7F7FA"/><stop offset="0.6321" style="stop-color:#DFE1EC"/><stop offset="1" style="stop-color:#C5CADC"/></linearGradient><path class="st6" d="M445.8,225.6l-212-122.4c-2.8-1.6-5.3-0.2-5.8,3.2l-19.2,152.3c-0.4,3.4,1.5,7.4,4.2,9l212,122.4     c2.8,1.6,5.3,0.1,5.7-3.2L450,234.6C450.4,231.2,448.5,227.2,445.8,225.6z"/><linearGradient gradientUnits="userSpaceOnUse" id="SVGID_5_" x1="215.5539" x2="443.2984" y1="243.7189" y2="243.7189"><stop offset="0" style="stop-color:#5A6B88"/><stop offset="0.3348" style="stop-color:#526484"/><stop offset="0.9086" style="stop-color:#3B547C"/><stop offset="1" style="stop-color:#37517B"/></linearGradient><polygon class="st7" points="233.7,110.9 215.6,255.6 425.1,376.5 443.3,231.9    "/><linearGradient gradientUnits="userSpaceOnUse" id="SVGID_6_" x1="326.0061" x2="212.9235" y1="259.0681" y2="143.6436"><stop offset="0" style="stop-color:#FFFFFF;stop-opacity:0.2"/><stop offset="0.4783" style="stop-color:#F7FAFE;stop-opacity:0.1043"/><stop offset="1" style="stop-color:#E8F0FB;stop-opacity:0"/></linearGradient><polygon class="st8" points="233.7,110.9 215.6,255.6 251.6,276.4 358.3,182.8    "/></g></g><g><linearGradient gradientUnits="userSpaceOnUse" id="SVGID_7_" x1="113.3552" x2="147.4046" y1="99.0771" y2="364.3345"><stop offset="0" style="stop-color:#CCD852"/><stop offset="1" style="stop-color:#3CA945"/></linearGradient><path class="st9" d="M190.1,173.9L60.9,99.2c-2.6-1.5-4.7-0.3-4.7,2.7l0,103.4c0,3,2.1,6.6,4.7,8.1L190.1,288    c2.6,1.5,4.7,0.3,4.7-2.7V181.9C194.8,179,192.7,175.3,190.1,173.9z"/><g><linearGradient gradientUnits="userSpaceOnUse" id="SVGID_8_" x1="70.3815" x2="128.5955" y1="152.8064" y2="216.5121"><stop offset="0" style="stop-color:#FFFFFF"/><stop offset="0.2529" style="stop-color:#F7F9FD"/><stop offset="0.6861" style="stop-color:#DFE9F7"/><stop offset="1" style="stop-color:#CADAF2"/></linearGradient><path class="st10" d="M115.1,162.5l-15.8,22c-0.2,0.2-0.4,0.3-0.9,0.1c-0.2-0.1-0.5-0.4-0.7-0.7l-23.9-36.8     c-4.1,3.7-6.6,9.9-6.7,18.2c-0.1,19.8,13.9,44,31.1,53.9c17.3,10,31.3,2,31.3-17.9C129.7,188.5,123.9,173.9,115.1,162.5z"/><linearGradient gradientUnits="userSpaceOnUse" id="SVGID_9_" x1="74.8896" x2="112.9593" y1="158.9359" y2="158.9359"><stop offset="0" style="stop-color:#4B60A9"/><stop offset="1" style="stop-color:#4C4193"/></linearGradient><path class="st11" d="M113,156.9c-4.4-5.3-9.4-9.7-14.7-12.8c-9.3-5.3-17.6-5.5-23.3-1.5L97.8,178L113,156.9z"/></g><g><linearGradient gradientUnits="userSpaceOnUse" id="SVGID_10_" x1="139.6313" x2="185.986" y1="225.2547" y2="225.2547"><stop offset="0" style="stop-color:#FFFFFF"/><stop offset="0.2529" style="stop-color:#F7F9FD"/><stop offset="0.6861" style="stop-color:#DFE9F7"/><stop offset="1" style="stop-color:#CADAF2"/></linearGradient><polygon class="st12" points="139.6,214.1 186,240.8 186,236.4 139.6,209.7    "/><linearGradient gradientUnits="userSpaceOnUse" id="SVGID_11_" x1="139.6078" x2="166.1253" y1="227.7357" y2="227.7357"><stop offset="0" style="stop-color:#FFFFFF"/><stop offset="0.2529" style="stop-color:#F7F9FD"/><stop offset="0.6861" style="stop-color:#DFE9F7"/><stop offset="1" style="stop-color:#CADAF2"/></linearGradient><polygon class="st13" points="139.6,222.3 166.1,237.6 166.1,233.2 139.6,217.9    "/><linearGradient gradientUnits="userSpaceOnUse" id="SVGID_12_" x1="139.655" x2="186.0095" y1="217.0524" y2="217.0524"><stop offset="0" style="stop-color:#FFFFFF"/><stop offset="0.2529" style="stop-color:#F7F9FD"/><stop offset="0.6861" style="stop-color:#DFE9F7"/><stop offset="1" style="stop-color:#CADAF2"/></linearGradient><polygon class="st14" points="139.7,201.5 139.7,205.9 186,232.6 186,228.2    "/></g><linearGradient gradientUnits="userSpaceOnUse" id="SVGID_13_" x1="173.5188" x2="194.5703" y1="169.5477" y2="199.3861"><stop offset="0" style="stop-color:#FFFFFF"/><stop offset="0.2331" style="stop-color:#F7F7FA"/><stop offset="0.6321" style="stop-color:#DFE1EC"/><stop offset="1" style="stop-color:#C5CADC"/></linearGradient><path class="st15" d="M183.6,182.6l2.1-1.2c0.4-0.2,0.4-1,0-1.7c-0.2-0.4-0.5-0.6-0.8-0.8c-0.3-0.2-0.5-0.2-0.8-0.1l-2.1,1.2    l-2.1-3.6c-0.2-0.4-0.5-0.6-0.8-0.8c-0.3-0.2-0.6-0.2-0.8-0.1c-0.4,0.3-0.4,1,0,1.7l2.1,3.6l-2.1,1.2c-0.4,0.2-0.4,1,0,1.7    c0.2,0.4,0.5,0.6,0.8,0.8c0.3,0.2,0.5,0.2,0.8,0.1l2.1-1.2l2.1,3.6c0.2,0.4,0.5,0.7,0.8,0.8c0.3,0.2,0.6,0.2,0.8,0.1    c0.4-0.3,0.4-1,0-1.7L183.6,182.6z"/></g><g><radialGradient cx="408.3232" cy="249.9445" gradientUnits="userSpaceOnUse" id="SVGID_14_" r="67.016"><stop offset="0" style="stop-color:#F0F6FD"/><stop offset="1" style="stop-color:#E8F0FB"/></radialGradient><path class="st16" d="M473,260.5l-129.2-74.6c-2.6-1.5-4.7-0.3-4.7,2.7l0,42.7c0,3,2.1,6.6,4.7,8.1L472.9,314    c2.6,1.5,4.7,0.3,4.7-2.7v-42.7C477.6,265.7,475.5,262,473,260.5z"/><g><g><path class="st17" d="M367.2,211.6c-8.2-4.8-14.9-1.3-14.9,7.9c0,4.7,1.8,10,4.6,14.7v0c2.7,4.4,6.3,8.3,10.3,10.6      c4,2.3,7.6,2.7,10.3,1.4c2.8-1.4,4.6-4.6,4.6-9.3C382.1,227.7,375.4,216.4,367.2,211.6z"/><g><g><path class="st18" d="M367.2,231c2.8,1.6,5,0.4,5-2.6c0-3.1-2.2-6.9-5-8.5c-2.7-1.6-5-0.4-5,2.6        C362.2,225.6,364.5,229.4,367.2,231z"/><path class="st18" d="M367.2,232.1c-4.7-2.8-8.8-1.8-10.3,2.1v0c2.7,4.4,6.3,8.3,10.3,10.6c4,2.3,7.6,2.7,10.3,1.4        C376,240.6,371.9,234.9,367.2,232.1z"/></g></g></g><text transform="matrix(0.8958 0.5245 0 1 391.4695 235.5942)"><tspan class="st19 st20 st21" x="0" y="0"/><tspan class="st22 st23 st24" x="0" y="9.1"/><tspan class="st22 st23 st24" x="0" y="18.1"/></text></g><g><linearGradient gradientUnits="userSpaceOnUse" id="SVGID_15_" x1="463.4188" x2="485.7465" y1="264.3069" y2="264.3069"><stop offset="0" style="stop-color:#E93E8E"/><stop offset="0.1005" style="stop-color:#E73C89"/><stop offset="0.2734" style="stop-color:#E1387C"/><stop offset="0.4979" style="stop-color:#D83067"/><stop offset="0.7622" style="stop-color:#CC264A"/><stop offset="1" style="stop-color:#BF1C2C"/></linearGradient><path class="st25" d="M474.6,251.5c6.2,3.6,11.1,12.2,11.1,19.3c0,7.1-5,9.9-11.2,6.4c-6.2-3.6-11.1-12.2-11.1-19.3     C463.4,250.8,468.4,247.9,474.6,251.5z"/></g><radialGradient cx="474.5826" cy="265.955" gradientUnits="userSpaceOnUse" id="SVGID_16_" r="6.1531"><stop offset="0" style="stop-color:#F0F6FD"/><stop offset="1" style="stop-color:#E8F0FB"/></radialGradient><path class="st26" d="M476.4,267l2.5-1.4c0.5-0.3,0.5-1.2,0-2c-0.2-0.4-0.6-0.8-0.9-0.9c-0.3-0.2-0.6-0.2-0.9-0.1l-2.5,1.4    l-2.4-4.2c-0.3-0.4-0.6-0.8-0.9-0.9c-0.3-0.2-0.6-0.2-0.9-0.1c-0.5,0.3-0.5,1.2,0,2l2.4,4.2l-2.5,1.4c-0.5,0.3-0.5,1.2,0,2    c0.2,0.4,0.6,0.8,0.9,0.9c0.3,0.2,0.6,0.2,0.9,0.1l2.5-1.4l2.4,4.2c0.3,0.4,0.6,0.8,0.9,0.9c0.3,0.2,0.6,0.2,0.9,0.1    c0.5-0.3,0.5-1.2,0-2L476.4,267z"/></g><g><radialGradient cx="408.3232" cy="322.0293" gradientUnits="userSpaceOnUse" id="SVGID_17_" r="67.016"><stop offset="0" style="stop-color:#F0F6FD"/><stop offset="1" style="stop-color:#E8F0FB"/></radialGradient><path class="st27" d="M473,332.6L343.7,258c-2.6-1.5-4.7-0.3-4.7,2.7l0,42.7c0,3,2.1,6.6,4.7,8.1L472.9,386    c2.6,1.5,4.7,0.3,4.7-2.7v-42.7C477.6,337.7,475.5,334.1,473,332.6z"/><g><g><path class="st28" d="M367.2,283.7c-8.2-4.8-14.9-1.3-14.9,7.9c0,4.7,1.8,10,4.6,14.7v0c2.7,4.4,6.3,8.3,10.3,10.6      c4,2.3,7.6,2.7,10.3,1.4c2.8-1.4,4.6-4.6,4.6-9.3C382.1,299.8,375.4,288.5,367.2,283.7z"/><g><g><path class="st29" d="M367.2,303.1c2.8,1.6,5,0.4,5-2.6s-2.2-6.9-5-8.5c-2.7-1.6-5-0.4-5,2.6S364.5,301.5,367.2,303.1z"/><path class="st29" d="M367.2,304.2c-4.7-2.8-8.8-1.8-10.3,2.1v0c2.7,4.4,6.3,8.3,10.3,10.6c4,2.3,7.6,2.7,10.3,1.4        C376,312.7,371.9,307,367.2,304.2z"/></g></g></g><text transform="matrix(0.8958 0.5245 0 1 391.4695 307.6787)"><tspan class="st19 st20 st21" x="0" y="0"/><tspan class="st22 st23 st24" x="0" y="9.1"/><tspan class="st22 st23 st24" x="0" y="18.1"/></text></g><g><linearGradient gradientUnits="userSpaceOnUse" id="SVGID_18_" x1="463.4188" x2="485.7465" y1="336.3918" y2="336.3918"><stop offset="0" style="stop-color:#E93E8E"/><stop offset="0.1005" style="stop-color:#E73C89"/><stop offset="0.2734" style="stop-color:#E1387C"/><stop offset="0.4979" style="stop-color:#D83067"/><stop offset="0.7622" style="stop-color:#CC264A"/><stop offset="1" style="stop-color:#BF1C2C"/></linearGradient><path class="st30" d="M474.6,323.6c6.2,3.6,11.1,12.2,11.1,19.3c0,7.1-5,9.9-11.2,6.4c-6.2-3.6-11.1-12.2-11.1-19.3     C463.4,322.9,468.4,320,474.6,323.6z"/></g><radialGradient cx="474.5826" cy="338.0398" gradientUnits="userSpaceOnUse" id="SVGID_19_" r="6.1531"><stop offset="0" style="stop-color:#F0F6FD"/><stop offset="1" style="stop-color:#E8F0FB"/></radialGradient><path class="st31" d="M476.4,339.1l2.5-1.4c0.5-0.3,0.5-1.2,0-2c-0.2-0.4-0.6-0.8-0.9-0.9c-0.3-0.2-0.6-0.2-0.9-0.1l-2.5,1.4    l-2.4-4.2c-0.3-0.4-0.6-0.8-0.9-0.9c-0.3-0.2-0.6-0.2-0.9-0.1c-0.5,0.3-0.5,1.2,0,2l2.4,4.2l-2.5,1.4c-0.5,0.3-0.5,1.2,0,2    c0.2,0.4,0.6,0.8,0.9,0.9c0.3,0.2,0.6,0.2,0.9,0.1l2.5-1.4l2.4,4.2c0.3,0.4,0.6,0.8,0.9,0.9c0.3,0.2,0.6,0.2,0.9,0.1    c0.5-0.3,0.5-1.2,0-2L476.4,339.1z"/></g><g><g><path class="st32" d="M309.6,36.8c4.8-4.2,9-24.8-1.7-19.6c-10.8,5.2-2.6,19.8-2.6,19.8L309.6,36.8z"/><path class="st33" d="M312.6,81.5c9.8,2.6,16.7-2.2,19-4.4c2.3-2.3-3.8-5.6-5.8-8.5c-0.9-1.2-1-3-0.8-5.3c0.3-3,1.5-6.9,2.8-11.1     l-19.5-6c0,0-0.6,10.1-1.1,13.9c-0.1,0.7-0.2,1.2-0.5,1.7c-1,2.2-3.5,2.9-7.7,5.5C294,70.5,302.8,78.9,312.6,81.5z"/><path class="st34" d="M307.3,60.1c0,0.2-0.1,0.5-0.1,0.7c2,2.3,4.3,4.2,6.4,4.5c3.2,0.4,7.4-0.7,11.7-3.6     c0.5-2.7,1.5-5.9,2.6-9.4l-19.5-6C308.4,46.2,307.8,56.3,307.3,60.1z"/><path class="st33" d="M335,40.2c-2.2,9.6-3.4,14.2-8.2,17.6s-9.3,4.8-12.8,4.3c-4.4-0.5-10-8.2-10.6-12.5     c-0.6-4.4-0.9-15.5,1.9-26c1.4-5.3,8.9-11,15.7-10.1C327.8,14.5,340.3,16.8,335,40.2z"/><path class="st33" d="M301.5,37.8c0.3,3.6,2.2,6.4,4.1,6.3c1.9-0.2,3.2-3.3,2.8-6.9c-0.3-3.6-2.2-6.4-4.1-6.3     C302.4,31.1,301.1,34.2,301.5,37.8z"/><linearGradient gradientUnits="userSpaceOnUse" id="SVGID_20_" x1="331.8597" x2="286.8812" y1="180.7804" y2="45.4359"><stop offset="0" style="stop-color:#352E87"/><stop offset="1" style="stop-color:#5F2E88"/></linearGradient><path class="st36" d="M393.1,131.7L348,143.5l-12-34c0,0-9.4,57-11.2,63.6c-1.8,6.4-3.4,6.8-6.3,6.3l-45.4-8     c-3.1-0.5-4.7-4.3-3.2-10.1c1.3-4.7,11.2-43.3,12.9-61c0,0-5.7,13.6-14.5,27L225.8,111l4.7-13.1l29.8,8.2c0,0,10.1-20.7,21.2-33     c3.3-3.7,12.9-8.4,18.7-9.4c1.7-0.3,3.2-0.5,4.4-0.5c0.2,5.3,5.1,9.1,9,9.8c4,0.7,12-0.6,13.1-4.7c1.5,0.5,3,1.4,4.6,2.4     c5.7,3.8,9.4,5.1,11.9,10.1c4.1,8.1,16.5,44,16.5,44l33.9-7.6L393.1,131.7z"/><g><path class="st37" d="M291.7,349.9c0.9,2,5.5,6.9,12.2,10.4c6.6,3.5,20.6,6.5,12.3,8.5c-8.3,2-13.8,1.7-26.4-2.5      c-5.3-1.5-4.8-1.8-10.4-1.5c-5.7,0.2-9.8,1.7-7.1-9.2C274.9,344.7,288.8,343.3,291.7,349.9z"/><path class="st37" d="M194.5,304c-0.4,2.2-6.2,7.1-11.9,11.9c-5.8,4.8-12.5,7.3-7.9,9.8c7.9,4.3,11.8,0.5,23.2-6.2      c4.8-2.6,4.6-1.6,9.9-3.7c3.6-1.4,6.7-3.3,5-10.5C210.3,294.4,195.9,297,194.5,304z"/><linearGradient gradientUnits="userSpaceOnUse" id="SVGID_21_" x1="255.322" x2="261.4552" y1="360.5918" y2="172.9137"><stop offset="0" style="stop-color:#EC6426"/><stop offset="1" style="stop-color:#FABB68"/></linearGradient><path class="st38" d="M324.5,176.9c0,0-6.3,43.8-10.6,70.1c-0.5,3-0.9,5.7-1.3,8c-0.6,3.4-1.1,6.1-1.4,7.7      c-0.6,2.9-1.8,8.4-3.2,15.3c-0.5,2.5-1.1,5.2-1.6,7.9c-4.7,22.9-10.8,53.6-11.1,57.6c-0.3,3.9-0.2,7.2,0,9c0,0.6-0.6,1-1.1,0.7      l-6.2-2.9c-0.2-0.1-0.4-0.1-0.6,0c-2,0.8-13.6,5.1-15.3,7.1c-1.9,2.2,0.7-5.4,1.4-13.5c0.5-6.1,7.8-42.6,12.5-65.5      c0.6-2.9,1.1-5.6,1.6-7.9c1-4.7,1.7-8.2,2-9.8c0.5-2.4,0.9-7.5,1.1-13.8c0.1-2.6,0.2-5.5,0.3-8.4c0.5-15.4,0.5-33.3,0.6-36.7      c0-0.3-0.2-0.6-0.6-0.7l-10.2-2.7c-0.2,0-0.3,0-0.5,0c-2.6,1.3-25.9,12.7-37.1,22.3c-2.7,2.3-4.8,4.6-5.5,6.5      c-0.1,0.3-0.2,0.5-0.3,0.8c-2.2,9-4.4,16.3-6.3,21.5c-0.7,1.9-1.3,3.6-1.9,4.9c-0.3,0.7-0.7,1.5-1.1,2.5      c-4.1,10-13.3,34.5-14.9,39.3c-1,3,0,5.1,0,7.3c0,3.5-5.7,5.1-8.7,3.7c-2.2-1.1-6.6-4-9.2-3.5c-0.6,0.1-1.1-0.3-1-0.9      c1.7-6.9,7.8-32.2,13.3-53.4c0.7-2.7,1.4-5.3,2.1-7.8c2.8-10.5,5.3-19.1,6.8-22.2c0.7-1.6,2.4-4,4.8-6.8      c13.4-15.9,47-45.7,47-45.7s1.2-3.7,3.2-3.4c4.4,0.7,4.7,1.4,27,5.9C322.3,174.3,325.1,171.8,324.5,176.9z"/></g><path class="st32" d="M333.4,23.8c-13.3-1.5-22.6-3.6-27.1-9.7c-4.5-6.1-0.4-6.8,3-4.7c0,0,2.2-5.6,7.4-2.1c0,0,6.7-4.4,11.7,2.6     c0,0,9.1-2.7,9.9,4.4C338.2,14.3,345.1,25.2,333.4,23.8z"/><path class="st32" d="M339.5,20.9c3.6,5.3,2.6,26.3-6.5,18.6c-9.2-7.7,1.3-18.2,1.3-18.2L339.5,20.9z"/><path class="st33" d="M332.1,39.6c-1.8,3.2-1.9,6.5-0.2,7.5c1.7,0.9,4.5-0.9,6.3-4.1c1.8-3.2,1.9-6.5,0.2-7.5     C336.7,34.5,333.9,36.4,332.1,39.6z"/><path class="st32" d="M324.2,176.5l-55.6-10c-0.4-0.1-0.6-0.5-0.5-0.8l2-5.5c0.1-0.3,0.4-0.5,0.7-0.4l54.7,9.6     c0.3,0.1,0.6,0.4,0.5,0.7l-1.1,6C324.9,176.4,324.6,176.6,324.2,176.5z"/><path class="st39" d="M331.3,70.6c-4.2,5.1-10.5,7.8-16.9,6.7c-7-1.2-12.2-6.6-14.2-13.6c1.7-0.3,3.2-0.5,4.4-0.5     c0.2,5.3,5.1,9.1,9,9.8c4,0.7,12-0.6,13.1-4.7C328.2,68.8,329.7,69.6,331.3,70.6z"/><path class="st32" d="M342.8,20.9c0.7-1.4,0.1-3.2-1.3-3.9l-2.6,5.2C340.3,22.9,342,22.3,342.8,20.9z"/><path class="st32" d="M311.3,21.3c4.9-1.6,7.5-6.8,6-11.6l-17.6,5.7C301.2,20.2,306.4,22.9,311.3,21.3z"/><path class="st32" d="M318.7,23.2c2.5-2.3,2.8-6.2,0.5-8.7l-9.2,8.2C312.3,25.3,316.2,25.5,318.7,23.2z"/><path class="st32" d="M342.2,24.6c1.6-0.3,2.6-1.8,2.3-3.4l-5.8,1.1C339.1,23.8,340.6,24.9,342.2,24.6z"/></g><path class="st33" d="M218.8,104.1c2.2,0.4,5.6-0.2,7.2-1.1c1.7-0.9,3.2-5.9,3.7-9.5c0.5-3.6-4.1-3.1-4.1-3.1s1.8-0.7,4.8-1.1    c3-0.4,4.1-3.8-0.2-3.7c-4.3,0.1-8.4,2.1-12.4,10.2c0,0-4.1,7.5,0,10.8L218.8,104.1z"/><path class="st33" d="M409.7,120.9c0-2.9-4.9-7.4-6.3-5.6c-1.4,1.8-5.1,8.4-4.5,11.7c0.6,3.2,2.3,5.7,2.3,5.7l-0.9,2.5    C400.3,135.1,409.6,133.2,409.7,120.9z"/></g><g><linearGradient gradientUnits="userSpaceOnUse" id="SVGID_22_" x1="320.3277" x2="308.1805" y1="100.5273" y2="200.1347"><stop offset="0" style="stop-color:#FFFFFF"/><stop offset="0.2529" style="stop-color:#F7F9FD"/><stop offset="0.6861" style="stop-color:#DFE9F7"/><stop offset="1" style="stop-color:#CADAF2"/></linearGradient><path class="st40" d="M391.6,115.4L238.2,26.8c-5.7-3.3-10.4-0.6-10.4,5.9l-0.4,128.2c0,6.6,4.6,14.6,10.3,17.9l153.4,88.5    c5.7,3.3,10.3,0.7,10.4-5.9l0.4-128.2C401.9,126.7,397.3,118.6,391.6,115.4z"/><path class="st41" d="M321.1,140.9c-1.8-2.5-3.9-4.5-6-5.7c-2.1-1.2-4.2-1.7-6.1-1.2L227.8,154l0,6.9c0,6.6,4.6,14.6,10.3,17.9    l153.4,88.5c5.7,3.3,10.3,0.7,10.4-5.9l0-6.9L321.1,140.9z"/><linearGradient gradientUnits="userSpaceOnUse" id="SVGID_23_" x1="292.3386" x2="357.5296" y1="44.9244" y2="159.9185"><stop offset="0" style="stop-color:#E93E8E"/><stop offset="0.1005" style="stop-color:#E73C89"/><stop offset="0.2734" style="stop-color:#E1387C"/><stop offset="0.4979" style="stop-color:#D83067"/><stop offset="0.7622" style="stop-color:#CC264A"/><stop offset="1" style="stop-color:#BF1C2C"/></linearGradient><path class="st42" d="M391.2,115.4l-2.4-1.4l-74.5,18.4L240.2,28.2l-2.4-1.4c-5.7-3.3-10.4-0.6-10.4,5.9l0,6.9l80.8,113.6    c1.8,2.6,3.9,4.5,6,5.7c2.1,1.2,4.2,1.7,6,1.2l81.2-20.1l0-6.9C401.5,126.7,396.9,118.6,391.2,115.4z"/></g><g><linearGradient gradientUnits="userSpaceOnUse" id="SVGID_24_" x1="98.3287" x2="88.9035" y1="333.8624" y2="411.1492"><stop offset="0" style="stop-color:#FFFFFF"/><stop offset="0.2529" style="stop-color:#F7F9FD"/><stop offset="0.6861" style="stop-color:#DFE9F7"/><stop offset="1" style="stop-color:#CADAF2"/></linearGradient><path class="st43" d="M153.6,345.4l-119-68.7c-4.4-2.6-8-0.5-8.1,4.6l-0.3,99.5c0,5.1,3.6,11.3,8,13.9l119,68.7    c4.4,2.6,8,0.5,8-4.6l0.3-99.5C161.6,354.1,158,347.9,153.6,345.4z"/><path class="st41" d="M98.9,365.2c-1.4-2-3-3.5-4.7-4.4c-1.6-0.9-3.3-1.3-4.7-1l-63,15.6l0,5.3c0,5.1,3.6,11.3,8,13.9l119,68.7    c4.4,2.6,8,0.5,8-4.6l0-5.3L98.9,365.2z"/><linearGradient gradientUnits="userSpaceOnUse" id="SVGID_25_" x1="76.6116" x2="127.1942" y1="290.7192" y2="379.9449"><stop offset="0" style="stop-color:#E93E8E"/><stop offset="0.1005" style="stop-color:#E73C89"/><stop offset="0.2734" style="stop-color:#E1387C"/><stop offset="0.4979" style="stop-color:#D83067"/><stop offset="0.7622" style="stop-color:#CC264A"/><stop offset="1" style="stop-color:#BF1C2C"/></linearGradient><path class="st44" d="M153.3,345.4l-1.8-1.1l-57.8,14.3l-57.5-80.9l-1.8-1.1c-4.4-2.6-8-0.5-8.1,4.6l0,5.3L89,374.7    c1.4,2,3.1,3.5,4.7,4.5c1.6,0.9,3.3,1.3,4.7,1l63-15.6l0-5.3C161.3,354.1,157.8,347.9,153.3,345.4z"/></g></g></svg>