<svg width="14" height="14" viewBox="0 0 14 14" fill="none" xmlns="http://www.w3.org/2000/svg">
<path d="M11.7254 1.36818H10.3573V0.68415C10.3573 0.502734 10.2853 0.328749 10.157 0.200469C10.0287 0.072189 9.85473 0.00012207 9.67331 0.00012207C9.4919 0.00012207 9.31791 0.072189 9.18963 0.200469C9.06135 0.328749 8.98929 0.502734 8.98929 0.68415V1.36818H4.88512V0.68415C4.88512 0.502734 4.81305 0.328749 4.68477 0.200469C4.55649 0.072189 4.38251 0.00012207 4.20109 0.00012207C4.01968 0.00012207 3.84569 0.072189 3.71741 0.200469C3.58913 0.328749 3.51706 0.502734 3.51706 0.68415V1.36818H2.14901C1.60476 1.36818 1.08281 1.58438 0.697965 1.96922C0.313125 2.35406 0.0969238 2.87601 0.0969238 3.42026V11.6286C0.0969238 12.1728 0.313125 12.6948 0.697965 13.0796C1.08281 13.4645 1.60476 13.6807 2.14901 13.6807H11.7254C12.2696 13.6807 12.7916 13.4645 13.1764 13.0796C13.5613 12.6948 13.7775 12.1728 13.7775 11.6286V3.42026C13.7775 2.87601 13.5613 2.35406 13.1764 1.96922C12.7916 1.58438 12.2696 1.36818 11.7254 1.36818ZM12.4094 11.6286C12.4094 11.81 12.3374 11.984 12.2091 12.1123C12.0808 12.2406 11.9068 12.3126 11.7254 12.3126H2.14901C1.96759 12.3126 1.79361 12.2406 1.66533 12.1123C1.53705 11.984 1.46498 11.81 1.46498 11.6286V6.8404H12.4094V11.6286ZM12.4094 5.47234H1.46498V3.42026C1.46498 3.23885 1.53705 3.06486 1.66533 2.93658C1.79361 2.8083 1.96759 2.73623 2.14901 2.73623H3.51706V3.42026C3.51706 3.60168 3.58913 3.77566 3.71741 3.90394C3.84569 4.03222 4.01968 4.10429 4.20109 4.10429C4.38251 4.10429 4.55649 4.03222 4.68477 3.90394C4.81305 3.77566 4.88512 3.60168 4.88512 3.42026V2.73623H8.98929V3.42026C8.98929 3.60168 9.06135 3.77566 9.18963 3.90394C9.31791 4.03222 9.4919 4.10429 9.67331 4.10429C9.85473 4.10429 10.0287 4.03222 10.157 3.90394C10.2853 3.77566 10.3573 3.60168 10.3573 3.42026V2.73623H11.7254C11.9068 2.73623 12.0808 2.8083 12.2091 2.93658C12.3374 3.06486 12.4094 3.23885 12.4094 3.42026V5.47234Z" fill="white"/>
</svg>
