<svg width="15" height="14" viewBox="0 0 15 14" fill="none" xmlns="http://www.w3.org/2000/svg">
<path d="M11.41 5.61828C11.9369 5.61802 12.4526 5.76987 12.8952 6.05559C13.3379 6.34131 13.6886 6.74875 13.9053 7.22897C14.122 7.70919 14.1955 8.24176 14.1169 8.76271C14.0382 9.28365 13.8109 9.77083 13.4621 10.1657V13.3122C13.4623 13.4001 13.4399 13.4865 13.3971 13.5632C13.3543 13.6399 13.2926 13.7043 13.2177 13.7503C13.1429 13.7963 13.0575 13.8223 12.9698 13.8259C12.882 13.8294 12.7948 13.8103 12.7165 13.7705L12.655 13.7329L11.41 12.8628L10.1651 13.7329C10.0932 13.7831 10.0096 13.814 9.92238 13.8228C9.83512 13.8315 9.74709 13.8177 9.66668 13.7827C9.58628 13.7477 9.51618 13.6927 9.46309 13.6229C9.41 13.5531 9.37568 13.4709 9.36341 13.3841L9.35862 13.3122V10.1643C9.01032 9.76946 8.78335 9.28248 8.70495 8.76182C8.62654 8.24116 8.70003 7.70893 8.9166 7.229C9.13317 6.74907 9.48362 6.34182 9.92589 6.05612C10.3682 5.77041 10.8835 5.61839 11.41 5.61828ZM12.4361 10.8921C12.1101 11.024 11.7617 11.0916 11.41 11.0912C11.0584 11.0916 10.71 11.024 10.384 10.8921V12.3279L11.1166 11.8169C11.1916 11.7644 11.2793 11.7329 11.3706 11.7256C11.4619 11.7184 11.5534 11.7358 11.6357 11.7759L11.7042 11.8169L12.4361 12.3279V10.8921ZM12.2651 0.832825C12.7441 0.832801 13.2051 1.01552 13.554 1.34372C13.9029 1.67192 14.1134 2.12086 14.1427 2.59898L14.1461 2.7139L14.1468 6.30231C13.8694 5.933 13.5205 5.62336 13.1208 5.39187L13.1201 2.7139C13.1202 2.50222 13.0418 2.29803 12.9 2.14085C12.7582 1.98366 12.5632 1.88465 12.3526 1.86297L12.2651 1.85887H2.34665C2.13497 1.85877 1.93079 1.9372 1.7736 2.07897C1.61641 2.22074 1.5174 2.41578 1.49572 2.62635L1.49162 2.7139V9.21216C1.49162 9.65473 1.82816 10.0193 2.2591 10.0624L2.34665 10.0672L8.44955 10.0679L8.53368 10.2067L8.62534 10.3408L8.67391 10.4051L8.67323 11.0932H2.34665C1.86753 11.0933 1.40645 10.9104 1.05752 10.5821C0.708584 10.2538 0.498092 9.80464 0.468996 9.3264L0.465576 9.21216V2.7139C0.465552 2.23489 0.648275 1.77391 0.976472 1.42499C1.30467 1.07607 1.75362 0.865508 2.23174 0.836245L2.34665 0.832825H12.2651ZM11.41 6.64432C10.9564 6.64432 10.5213 6.82453 10.2006 7.14529C9.87981 7.46606 9.69961 7.90111 9.69961 8.35474C9.69961 8.80837 9.87981 9.24342 10.2006 9.56418C10.5213 9.88494 10.9564 10.0651 11.41 10.0651C11.8637 10.0651 12.2987 9.88494 12.6195 9.56418C12.9402 9.24342 13.1204 8.80837 13.1204 8.35474C13.1204 7.90111 12.9402 7.46606 12.6195 7.14529C12.2987 6.82453 11.8637 6.64432 11.41 6.64432ZM6.79283 7.32835C6.92281 7.32839 7.04794 7.37777 7.14291 7.46651C7.23789 7.55525 7.29564 7.67673 7.3045 7.80641C7.31336 7.93609 7.27267 8.06429 7.19064 8.16512C7.10861 8.26595 6.99137 8.33189 6.8626 8.34961L6.79283 8.35439H3.71471C3.58473 8.35435 3.45961 8.30498 3.36463 8.21624C3.26965 8.1275 3.2119 8.00602 3.20304 7.87634C3.19418 7.74666 3.23487 7.61845 3.3169 7.51762C3.39893 7.41679 3.51617 7.35086 3.64494 7.33314L3.71471 7.32835H6.79283ZM10.897 3.5662C11.027 3.56624 11.1521 3.61562 11.2471 3.70435C11.3421 3.79309 11.3998 3.91457 11.4087 4.04425C11.4175 4.17393 11.3768 4.30214 11.2948 4.40297C11.2128 4.5038 11.0955 4.56974 10.9668 4.58745L10.897 4.59224H3.71471C3.58473 4.5922 3.45961 4.54282 3.36463 4.45409C3.26965 4.36535 3.2119 4.24387 3.20304 4.11419C3.19418 3.98451 3.23487 3.8563 3.3169 3.75547C3.39893 3.65464 3.51617 3.58871 3.64494 3.57099L3.71471 3.5662H10.897Z" fill="white"/>
</svg>
